<svg id="Logo" xmlns="http://www.w3.org/2000/svg" viewBox="0 0 231.594 76.725">
  <defs>
    <style>
      .cls-1 {
        fill: #fff;
      }
    </style>
  </defs>
  <g id="Group_1105" data-name="Group 1105">
    <g id="Group_1103" data-name="Group 1103" transform="translate(5.348 14.833)">
      <path id="Path_2535" data-name="Path 2535" class="cls-1" d="M56.906,144.706c1.239-.459,1.99-.724,2.018-.738h0a.578.578,0,0,0,.334-.32.534.534,0,0,0-.306-.7.58.58,0,0,0-.376,0h0c-.028.014-.459.153-1.2.432a117.679,117.679,0,0,1,5.818-13.85h0c.014-.014.014-.028.028-.056a.534.534,0,0,0-.306-.7.543.543,0,0,0-.668.251h0a118.79,118.79,0,0,0-5.6,13.168c-.195.543-.39,1.1-.6,1.684-2.13.807-5.359,2.088-8.769,3.647,2.171-6.1,4.7-12.653,4.774-12.834h0a.538.538,0,1,0-1-.39h0c-.167.445-2.937,7.572-5.15,13.864a75.23,75.23,0,0,0-7.224,3.856h0a.523.523,0,0,0-.223.264.534.534,0,0,0,.306.7.514.514,0,0,0,.473-.042h0c1.893-1.169,4.009-2.3,6.152-3.341-.863,2.492-1.587,4.747-1.977,6.264h0a.548.548,0,0,0,.32.64.534.534,0,0,0,.7-.306.084.084,0,0,0,.014-.056h0c.432-1.67,1.295-4.315,2.3-7.182,3.3-1.545,6.514-2.854,8.811-3.73a130.861,130.861,0,0,0-6.333,28.591h0a.544.544,0,0,0,.334.557.534.534,0,0,0,.7-.306.5.5,0,0,0,.028-.139h0A132.241,132.241,0,0,1,56.906,144.706Z" transform="translate(-38.424 -125.659)"/>
      <path id="Path_2536" data-name="Path 2536" class="cls-1" d="M210.308,140.394h0a71.138,71.138,0,0,1,6.236-16.884c.084-.153.167-.306.264-.473a.532.532,0,0,0-.223-.724.539.539,0,0,0-.724.209c0,.014-.084.153-.237.432-2.074,3.744-4.315,4.774-5.345,5.053.362-5,5.735-7.113,5.791-7.127a.54.54,0,0,0,.32-.668.527.527,0,0,0-.64-.362c-3.522.863-7.224,4.941-9.1,7.294A43.975,43.975,0,0,1,208.832,120a.56.56,0,0,0-.139-.612.545.545,0,0,0-.626-.07,22.269,22.269,0,0,0-5.039,4.12l.933-2.9a.551.551,0,0,0-.251-.64.532.532,0,0,0-.668.111,27.109,27.109,0,0,1-2.979,2.881,24.479,24.479,0,0,0,.264-2.492.525.525,0,0,0-.251-.487.534.534,0,0,0-.557-.014,2.7,2.7,0,0,0-.64.543c.306-.5.376-.821.278-1.1a.553.553,0,0,0-.376-.348c-.125-.028-3.021-.682-4.426,4.886,0,.014-.028.111-.056.251-.529.557-1.072,1.1-1.6,1.629-.1-1.643-.264-3.2-.278-3.382-.028-.724-.028-1.336-.014-1.851.459-.807.947-1.67,1.475-2.617a.535.535,0,0,0-.125-.668,1.171,1.171,0,0,0-1.267-.181c-.459.223-1.016.807-1.155,3.16-3.188,5.526-4.8,7.572-5.526,8.338a51.894,51.894,0,0,1,1.308-6.988q1.921-3.445,4.3-8.185a.509.509,0,0,0-.111-.626.547.547,0,0,0-.64-.084c-.139.084-2.673,1.587-4.552,8.449a48.174,48.174,0,0,1-4.538,7.169c.682-3.828,1.392-6.946,2.074-9.493q2.526-4.928,5.637-11.47a.536.536,0,0,0-.07-.571.512.512,0,0,0-.543-.181c-.376.084-3.118,1.1-6.027,11.8-4.232,8.24-6.361,11.414-7.377,12.639l1.127-6.556a.551.551,0,0,0-.376-.612.535.535,0,0,0-.654.292c-2.338,5.081-4.357,6.292-4.371,6.306h0a.472.472,0,0,0-.237.278.531.531,0,0,0,.766.654h0c.07-.042,1.434-.835,3.229-3.772l-.779,4.566a.556.556,0,0,0,.139.459.641.641,0,0,0,.571.181c.278-.042,1.016-.167,3.494-4.134.974-1.573,2.116-3.563,3.4-5.944-.445,1.991-.877,4.218-1.308,6.709a.571.571,0,0,0,.181.5.642.642,0,0,0,.557.125c.376-.07,1.044-.445,2.686-2.867.487-.724,1.016-1.559,1.6-2.533-.264,1.406-.5,2.965-.682,4.7a.518.518,0,0,0,.07.32.682.682,0,0,0,.6.334c.39,0,1.489,0,6.055-7.7v.1c.153,1.448.278,3.034.334,4.343A17.64,17.64,0,0,0,189,131.012a.546.546,0,0,0,.084.557.583.583,0,0,0,.529.195,6.794,6.794,0,0,0,2.645-1.336c.362-.181.6-.7.515-3.243q.292-.313.626-.626l.014-.014c.014-.014.362-.348.877-.891a3.306,3.306,0,0,0,.418,1.155,2.529,2.529,0,0,0,1.7,1.114,1.828,1.828,0,0,0,1.5-.306,5.629,5.629,0,0,0,1.893-3.508.535.535,0,0,0,.515-.084c.042-.042.835-.64,1.865-1.629l-1.03,3.188a.53.53,0,0,0,.264.64.541.541,0,0,0,.682-.153,29.16,29.16,0,0,1,5.108-5,33.319,33.319,0,0,0-1.963,7.948.563.563,0,0,0,.348.557.548.548,0,0,0,.626-.195,39.468,39.468,0,0,1,3.717-4.426,8.2,8.2,0,0,0-.793,3.647.541.541,0,0,0,.543.529,6.392,6.392,0,0,0,3.758-1.768,70.937,70.937,0,0,0-4.232,12.778h0a.539.539,0,0,0,1.03.306c.014-.028.014-.056.028-.084h0C210.308,140.408,210.308,140.408,210.308,140.394Zm-18.666-10.788a6.815,6.815,0,0,1-1,.682,18.93,18.93,0,0,1,1.1-1.74A4.236,4.236,0,0,1,191.642,129.606Zm6.139-9.4c-.362.515-.988,1.239-1.726,2.074A3.862,3.862,0,0,1,197.78,120.21Zm-.432,6.57a.819.819,0,0,1-.585.167.125.125,0,0,0-.07-.014,1.561,1.561,0,0,1-1.044-.64,2.677,2.677,0,0,1-.292-1.656c.334-.348.668-.71,1.016-1.086.849-.919,1.5-1.7,1.977-2.3q.146-.188.251-.334a2.06,2.06,0,0,0-.209.682,2.361,2.361,0,0,0,.543,1.67C198.476,125.639,197.794,126.488,197.349,126.781Z" transform="translate(-152.308 -106.564)"/>
      <path id="Path_2537" data-name="Path 2537" class="cls-1" d="M213.4,192.9a.984.984,0,1,0,.96-1.2A1.1,1.1,0,0,0,213.4,192.9Z" transform="translate(-189.044 -179.85)"/>
    </g>
    <g id="Group_1104" data-name="Group 1104">
      <path id="Path_2538" data-name="Path 2538" class="cls-1" d="M38.362,2.784A35.411,35.411,0,1,1,24.526,5.568,35.431,35.431,0,0,1,38.362,2.784m0-2.784A38.362,38.362,0,1,0,76.725,38.362,38.364,38.364,0,0,0,38.362,0Z"/>
    </g>
  </g>
  <g id="Group_1106" data-name="Group 1106" transform="translate(89.238 31.389)">
    <path id="Path_2539" data-name="Path 2539" class="cls-1" d="M641.1,226.9h2.6l6.027,7.92V226.9h2.8v12.862H650.12l-6.222-8.171v8.171h-2.8Z" transform="translate(-641.1 -226.705)"/>
    <path id="Path_2540" data-name="Path 2540" class="cls-1" d="M745.4,226.9h9.688v2.519H748.2v2.6h6.055v2.519h-6.069v2.7h6.988v2.519H745.4Z" transform="translate(-730.882 -226.705)"/>
    <path id="Path_2541" data-name="Path 2541" class="cls-1" d="M831.211,229.5H827.3v-2.6h10.662v2.6h-3.911v10.259h-2.826V229.5Z" transform="translate(-801.382 -226.705)"/>
    <path id="Path_2542" data-name="Path 2542" class="cls-1" d="M919.4,226.9h2.826v5.095h5.22V226.9h2.826v12.862h-2.826V234.6h-5.22v5.164H919.4Z" transform="translate(-880.662 -226.705)"/>
    <path id="Path_2543" data-name="Path 2543" class="cls-1" d="M1019.7,226.9h9.688v2.519h-6.89v2.6h6.069v2.519H1022.5v2.7h6.988v2.519h-9.772V226.9Z" transform="translate(-967 -226.705)"/>
    <path id="Path_2544" data-name="Path 2544" class="cls-1" d="M1108.014,226.9h5.874a5.026,5.026,0,0,1,3.744,1.308,3.958,3.958,0,0,1,1.1,2.937v.042a3.994,3.994,0,0,1-.766,2.547,4.461,4.461,0,0,1-1.99,1.448l3.146,4.593h-3.313l-2.756-4.12h-2.227v4.12H1108V226.9Zm5.707,6.25a2.3,2.3,0,0,0,1.6-.5,1.666,1.666,0,0,0,.557-1.322v-.042a1.645,1.645,0,0,0-.585-1.378,2.576,2.576,0,0,0-1.629-.459h-2.812v3.689h2.867Z" transform="translate(-1043.009 -226.705)"/>
    <path id="Path_2545" data-name="Path 2545" class="cls-1" d="M1203.6,226.9h2.826v10.314h6.417v2.547H1203.6Z" transform="translate(-1125.302 -226.705)"/>
    <path id="Path_2546" data-name="Path 2546" class="cls-1" d="M1282.912,226.2h2.6l5.512,12.959h-2.965l-1.169-2.881h-5.443l-1.169,2.881H1277.4Zm2.965,7.572-1.712-4.176-1.712,4.176Z" transform="translate(-1188.83 -226.103)"/>
    <path id="Path_2547" data-name="Path 2547" class="cls-1" d="M1389.6,226.9h2.6l6.027,7.92V226.9h2.8v12.862h-2.408l-6.222-8.171v8.171h-2.8Z" transform="translate(-1285.412 -226.705)"/>
    <path id="Path_2548" data-name="Path 2548" class="cls-1" d="M1493.8,226.9h5.011a7.772,7.772,0,0,1,2.77.487,6.657,6.657,0,0,1,2.172,1.35,5.92,5.92,0,0,1,1.406,2.032,6.313,6.313,0,0,1,.5,2.519v.042a6.381,6.381,0,0,1-.5,2.533,6.111,6.111,0,0,1-1.406,2.046,6.776,6.776,0,0,1-2.172,1.364,7.43,7.43,0,0,1-2.77.5H1493.8Zm5.025,10.3a4.525,4.525,0,0,0,1.587-.278,3.328,3.328,0,0,0,1.225-.793,3.783,3.783,0,0,0,1.072-2.77v-.042a4.37,4.37,0,0,0-.278-1.559,3.721,3.721,0,0,0-.793-1.225,3.217,3.217,0,0,0-1.225-.793,4.132,4.132,0,0,0-1.587-.278h-2.185v7.753h2.185Z" transform="translate(-1375.108 -226.705)"/>
    <path id="Path_2549" data-name="Path 2549" class="cls-1" d="M1596.356,238.738a8.6,8.6,0,0,1-2.881-.5,7.478,7.478,0,0,1-2.575-1.559l1.67-2a8.522,8.522,0,0,0,1.81,1.141,4.87,4.87,0,0,0,2.032.418,2.5,2.5,0,0,0,1.364-.32,1.02,1.02,0,0,0,.487-.891v-.042a1.089,1.089,0,0,0-.1-.487.948.948,0,0,0-.39-.39,3.578,3.578,0,0,0-.793-.362,13.712,13.712,0,0,0-1.322-.39,14.93,14.93,0,0,1-1.768-.529,4.964,4.964,0,0,1-1.35-.724,3.1,3.1,0,0,1-.863-1.072,3.65,3.65,0,0,1-.306-1.6v-.042a3.68,3.68,0,0,1,.334-1.587,3.783,3.783,0,0,1,.919-1.225,3.918,3.918,0,0,1,1.42-.793,5.737,5.737,0,0,1,1.81-.278,7.793,7.793,0,0,1,2.6.418,7.245,7.245,0,0,1,2.172,1.211l-1.476,2.13a10.257,10.257,0,0,0-1.684-.933,4.4,4.4,0,0,0-1.656-.334,2.028,2.028,0,0,0-1.239.32.972.972,0,0,0-.417.793v.042a1.117,1.117,0,0,0,.125.543,1.133,1.133,0,0,0,.432.418,4.079,4.079,0,0,0,.863.348c.362.111.821.237,1.378.39a11.56,11.56,0,0,1,1.74.585,5.052,5.052,0,0,1,1.294.766,3.07,3.07,0,0,1,.793,1.058,3.539,3.539,0,0,1,.264,1.448v.042a3.9,3.9,0,0,1-.348,1.7,3.469,3.469,0,0,1-.974,1.253,4.249,4.249,0,0,1-1.476.766A5.814,5.814,0,0,1,1596.356,238.738Z" transform="translate(-1458.692 -225.5)"/>
  </g>
</svg>
